<svg xmlns="http://www.w3.org/2000/svg" width="147.988" height="329.964" viewBox="0 0 147.988 329.964"><g id="Grupo_26" data-name="Grupo 26" transform="translate(-461.5 -76.5)"><path id="Sustracci&#xF3;n_2" data-name="Sustracci&#xF3;n 2" d="M106,28.66a80.074,80.074,0,0,1-16.023-1.615,79.025,79.025,0,0,1-14.922-4.632,79.53,79.53,0,0,1-13.5-7.33A80.038,80.038,0,0,1,49.785,5.374,80.04,80.04,0,0,1,40.077-6.392a79.529,79.529,0,0,1-7.33-13.5,79.093,79.093,0,0,1-4.632-14.922A80.073,80.073,0,0,1,26.5-50.841a80.086,80.086,0,0,1,1.615-16.023,79.122,79.122,0,0,1,4.632-14.922,79.524,79.524,0,0,1,7.33-13.5,80.051,80.051,0,0,1,9.708-11.767,80.088,80.088,0,0,1,11.766-9.707,79.473,79.473,0,0,1,13.5-7.33,79.159,79.159,0,0,1,14.922-4.632A80.139,80.139,0,0,1,106-130.341a80.152,80.152,0,0,1,16.023,1.615,79.187,79.187,0,0,1,14.922,4.632,79.514,79.514,0,0,1,13.5,7.33,80.1,80.1,0,0,1,11.615,9.557c-7.466,7.554-15.585,15.754-24.133,24.374a44.318,44.318,0,0,0-13.61-9.011A44.212,44.212,0,0,0,107-95.341a44.22,44.22,0,0,0-17.322,3.5,44.349,44.349,0,0,0-14.144,9.536A44.33,44.33,0,0,0,66-68.162a44.227,44.227,0,0,0-3.5,17.321A44.227,44.227,0,0,0,66-33.52a44.345,44.345,0,0,0,9.536,14.145A44.38,44.38,0,0,0,89.678-9.838,44.236,44.236,0,0,0,107-6.34a44.227,44.227,0,0,0,17.321-3.5,44.343,44.343,0,0,0,13.714-9.112l24.37,24.133-.155.155-.036.036a80.043,80.043,0,0,1-11.766,9.708,79.506,79.506,0,0,1-13.5,7.33,79.052,79.052,0,0,1-14.922,4.632A80.087,80.087,0,0,1,106,28.66Z" transform="translate(435 206.841)" fill="#fff"></path><g id="Grupo_25" data-name="Grupo 25" transform="translate(-234.37 -136)"><path id="Trazado_30" data-name="Trazado 30" d="M706.536,439.917a19.08,19.08,0,0,1-7.484-7.086,20.68,20.68,0,0,1-.019-20.509,19.085,19.085,0,0,1,7.472-7.1,23.864,23.864,0,0,1,19.738-.815,18.108,18.108,0,0,1,6.8,5.053l-5.714,5.283a12.294,12.294,0,0,0-9.681-4.5,12.84,12.84,0,0,0-6.377,1.573,11.142,11.142,0,0,0-4.367,4.375,13.763,13.763,0,0,0,.012,12.756,11.138,11.138,0,0,0,4.375,4.368,12.859,12.859,0,0,0,6.38,1.561,12.236,12.236,0,0,0,9.673-4.573l5.723,5.274a17.831,17.831,0,0,1-6.813,5.12,22.646,22.646,0,0,1-9.072,1.767A22.1,22.1,0,0,1,706.536,439.917Z" fill="#fff"></path><path id="Trazado_31" data-name="Trazado 31" d="M773.008,404.264l.035,38.489-8.907.009-.015-15.782L746.636,427l.015,15.782-8.909.008-.035-38.49,8.908-.008.014,15.176,17.485-.016-.014-15.176Z" fill="#fff"></path><path id="Trazado_32" data-name="Trazado 32" d="M785.109,438.838q-4.6-4.559-4.6-13.027l-.019-21.554,8.908-.008.019,21.224q.01,10.338,8.587,10.329a8.039,8.039,0,0,0,6.376-2.508q2.2-2.5,2.192-7.837l-.019-21.224,8.8-.008.02,21.554q.008,8.468-4.58,13.036t-12.834,4.575Q789.7,443.4,785.109,438.838Z" fill="#fff"></path><path id="Trazado_33" data-name="Trazado 33" d="M720.428,491.8,713,481.086h-.44l-7.753.007.009,10.723-8.907.008-.035-38.489,16.66-.016a21.386,21.386,0,0,1,8.882,1.7,13.194,13.194,0,0,1,5.8,4.832,13.329,13.329,0,0,1,2.041,7.422,12.538,12.538,0,0,1-7.907,12.159L730,491.793Zm-2.281-29.5q-2.092-1.731-6.1-1.727l-7.258.007L704.8,474l7.259-.007q4.011,0,6.1-1.766a6.936,6.936,0,0,0-.009-9.924Z" fill="#fff"></path><path id="Trazado_34" data-name="Trazado 34" d="M759.522,491.766l-7.433-10.716h-.44l-7.753.007.01,10.723-8.907.008-.036-38.489,16.661-.015a21.374,21.374,0,0,1,8.882,1.7,13.2,13.2,0,0,1,5.8,4.833,13.342,13.342,0,0,1,2.041,7.421,12.536,12.536,0,0,1-7.907,12.159l8.644,12.364Zm-2.281-29.5q-2.093-1.731-6.105-1.726l-7.259.006.013,13.417,7.258-.007q4.012,0,6.1-1.765a6.94,6.94,0,0,0-.009-9.925Z" fill="#fff"></path><path id="Trazado_35" data-name="Trazado 35" d="M799.433,483.482l-17.87.016-3.4,8.251-9.128.008,17.12-38.5,8.8-.008L812.2,491.718l-9.347.008Zm-2.81-6.762-6.117-14.73-6.09,14.741Z" fill="#fff"></path><path id="Trazado_36" data-name="Trazado 36" d="M818.712,491.134a20.694,20.694,0,0,1-6.849-3.21l3.019-6.711a20.488,20.488,0,0,0,5.885,2.908,22.075,22.075,0,0,0,6.82,1.094,10.883,10.883,0,0,0,5.607-1.133,3.4,3.4,0,0,0,1.812-3,2.866,2.866,0,0,0-1.074-2.28,8.117,8.117,0,0,0-2.751-1.455q-1.679-.547-4.537-1.206a62.439,62.439,0,0,1-7.2-2.083,11.682,11.682,0,0,1-4.814-3.349,9.049,9.049,0,0,1-2.013-6.157,10.718,10.718,0,0,1,1.809-6.078,12.2,12.2,0,0,1,5.466-4.32,22.328,22.328,0,0,1,8.934-1.6,29.615,29.615,0,0,1,7.2.874,21.259,21.259,0,0,1,6.161,2.524l-2.743,6.765a21.455,21.455,0,0,0-10.67-3.014,10,10,0,0,0-5.525,1.214,3.694,3.694,0,0,0-1.784,3.191,3.117,3.117,0,0,0,2.065,2.94,32.379,32.379,0,0,0,6.3,1.892,62.731,62.731,0,0,1,7.205,2.082,11.932,11.932,0,0,1,4.814,3.3,8.846,8.846,0,0,1,2.013,6.1,10.509,10.509,0,0,1-1.837,6.023,12.383,12.383,0,0,1-5.522,4.322,22.542,22.542,0,0,1-8.96,1.6A31.485,31.485,0,0,1,818.712,491.134Z" fill="#fff"></path><path id="Trazado_37" data-name="Trazado 37" d="M706.476,539.918a19.082,19.082,0,0,1-7.484-7.087,20.673,20.673,0,0,1-.019-20.509,19.089,19.089,0,0,1,7.471-7.1,22.219,22.219,0,0,1,10.692-2.566,22.449,22.449,0,0,1,9.047,1.751,18.1,18.1,0,0,1,6.8,5.053l-5.713,5.283a12.3,12.3,0,0,0-9.682-4.5,12.843,12.843,0,0,0-6.377,1.573,11.142,11.142,0,0,0-4.367,4.375,13.764,13.764,0,0,0,.012,12.756,11.138,11.138,0,0,0,4.375,4.368,12.864,12.864,0,0,0,6.38,1.561,12.237,12.237,0,0,0,9.674-4.573L733,535.577a17.832,17.832,0,0,1-6.813,5.12,22.642,22.642,0,0,1-9.071,1.767A22.107,22.107,0,0,1,706.476,539.918Z" fill="#fff"></path><path id="Trazado_38" data-name="Trazado 38" d="M744.69,539.855a19.169,19.169,0,0,1-7.539-7.114,20.469,20.469,0,0,1-.019-20.4,19.179,19.179,0,0,1,7.526-7.127,23.824,23.824,0,0,1,21.582-.02,19.631,19.631,0,0,1,.032,34.641,23.824,23.824,0,0,1-21.582.02Zm16.957-6.586a11.246,11.246,0,0,0,4.312-4.376,13.763,13.763,0,0,0-.012-12.756,11.252,11.252,0,0,0-4.32-4.368,12.885,12.885,0,0,0-12.317.012A11.244,11.244,0,0,0,745,516.156a13.755,13.755,0,0,0,.012,12.756,11.232,11.232,0,0,0,4.32,4.368,12.889,12.889,0,0,0,12.317-.011Z" fill="#fff"></path></g></g></svg>